# xmcd CD database file
#
# Track frame offsets:
#	150
#	12940
#	24705
#	36346
#	50437
#	64462
#	78296
#	94477
#	103615
#	116544
#	131550
#	145482
#	159548
#	169929
#	178809
#	192913
#	210383
#	222661
#	233182
#	246607
#
# Disc length: 3436 seconds
#
# Revision: 1
# Processed by: cddbd v1.5.2PL0 Copyright (c) Steve Scherf et al.
# Submitted via: CDex 1.77
#
DISCID=310d6a14
DTITLE=Ronny - Gold (5 CDs) - CD3
DYEAR=2014
DGENRE=Country
TTITLE0=Ronny - Oh My Darling Caroline
TTITLE1=Ronny - Little Sweetheart Belinda
TTITLE2=Ronny - Sterne funkeln in der Nacht
TTITLE3=Ronny - Oh Muchachos
TTITLE4=Ronny - Nur noch einmal nach Haus (Detroit City)
TTITLE5=Ronny - Darling, Good Night
TTITLE6=Ronny - Es haengt ein Pferdehalfter an der Wand
TTITLE7=Ronny - Geisterreiter
TTITLE8=Ronny - Welcome Stranger
TTITLE9=Ronny - The Green Valleys of Home
TTITLE10=Ronny - Fly, Bird, Fly to Buffalo
TTITLE11=Ronny - Tom Dooley
TTITLE12=Ronny - Mountain Music's Goin' Round
TTITLE13=Ronny - Fern in Idaho
TTITLE14=Ronny - Billy Joe (Don't Take Your Guns To Town)
TTITLE15=Ronny - Adios, My Love
TTITLE16=Ronny - Kein Gold im Blue River
TTITLE17=Ronny - Kenn ein Land
TTITLE18=Ronny - Mexikanische Serenade (South Of The Border)
TTITLE19=Ronny - Schwarze Reiter ziehen durch die Nacht
EXTD=YEAR: 2014
EXTT0=
EXTT1=
EXTT2=
EXTT3=
EXTT4=
EXTT5=
EXTT6=
EXTT7=
EXTT8=
EXTT9=
EXTT10=
EXTT11=
EXTT12=
EXTT13=
EXTT14=
EXTT15=
EXTT16=
EXTT17=
EXTT18=
EXTT19=
PLAYORDER=
